<?xml version="1.0" encoding="UTF-8" standalone="no"?>
<!-- Created with Inkscape (http://www.inkscape.org/) -->

<svg
   width="327.80292mm"
   height="194.69203mm"
   viewBox="0 0 327.80291 194.69203"
   version="1.1"
   id="svg1"
   inkscape:version="1.4 (e7c3feb100, 2024-10-09)"
   sodipodi:docname="repocreate.svg"
   xmlns:inkscape="http://www.inkscape.org/namespaces/inkscape"
   xmlns:sodipodi="http://sodipodi.sourceforge.net/DTD/sodipodi-0.dtd"
   xmlns="http://www.w3.org/2000/svg"
   xmlns:svg="http://www.w3.org/2000/svg">
  <sodipodi:namedview
     id="namedview1"
     pagecolor="#ffffff"
     bordercolor="#000000"
     borderopacity="0.25"
     inkscape:showpageshadow="2"
     inkscape:pageopacity="0.0"
     inkscape:pagecheckerboard="0"
     inkscape:deskcolor="#d1d1d1"
     inkscape:document-units="mm"
     inkscape:zoom="1.0948152"
     inkscape:cx="622.4795"
     inkscape:cy="366.27187"
     inkscape:window-width="1916"
     inkscape:window-height="1021"
     inkscape:window-x="0"
     inkscape:window-y="0"
     inkscape:window-maximized="0"
     inkscape:current-layer="layer1" />
  <defs
     id="defs1">
    <marker
       style="overflow:visible"
       id="DartArrow"
       refX="0"
       refY="0"
       orient="auto-start-reverse"
       inkscape:stockid="Dart arrow"
       markerWidth="2"
       markerHeight="2"
       viewBox="0 0 1 1"
       inkscape:isstock="true"
       inkscape:collect="always"
       preserveAspectRatio="xMidYMid">
      <path
         style="fill:context-stroke;fill-rule:evenodd;stroke:none"
         d="M 0,0 5,-5 -12.5,0 5,5 Z"
         transform="scale(-0.5)"
         id="path6" />
    </marker>
    <marker
       style="overflow:visible"
       id="DartArrow-5"
       refX="0"
       refY="0"
       orient="auto-start-reverse"
       inkscape:stockid="Dart arrow"
       markerWidth="2"
       markerHeight="2"
       viewBox="0 0 1 1"
       inkscape:isstock="true"
       inkscape:collect="always"
       preserveAspectRatio="xMidYMid">
      <path
         style="fill:context-stroke;fill-rule:evenodd;stroke:none"
         d="M 0,0 5,-5 -12.5,0 5,5 Z"
         transform="scale(-0.5)"
         id="path6-0" />
    </marker>
    <marker
       style="overflow:visible"
       id="DartArrow-56"
       refX="0"
       refY="0"
       orient="auto-start-reverse"
       inkscape:stockid="Dart arrow"
       markerWidth="2"
       markerHeight="2"
       viewBox="0 0 1 1"
       inkscape:isstock="true"
       inkscape:collect="always"
       preserveAspectRatio="xMidYMid">
      <path
         style="fill:context-stroke;fill-rule:evenodd;stroke:none"
         d="M 0,0 5,-5 -12.5,0 5,5 Z"
         transform="scale(-0.5)"
         id="path6-1" />
    </marker>
    <marker
       style="overflow:visible"
       id="DartArrow-56-9"
       refX="0"
       refY="0"
       orient="auto-start-reverse"
       inkscape:stockid="Dart arrow"
       markerWidth="2"
       markerHeight="2"
       viewBox="0 0 1 1"
       inkscape:isstock="true"
       inkscape:collect="always"
       preserveAspectRatio="xMidYMid">
      <path
         style="fill:context-stroke;fill-rule:evenodd;stroke:none"
         d="M 0,0 5,-5 -12.5,0 5,5 Z"
         transform="scale(-0.5)"
         id="path6-1-6" />
    </marker>
    <marker
       style="overflow:visible"
       id="DartArrow-56-9-3"
       refX="0"
       refY="0"
       orient="auto-start-reverse"
       inkscape:stockid="Dart arrow"
       markerWidth="2"
       markerHeight="2"
       viewBox="0 0 1 1"
       inkscape:isstock="true"
       inkscape:collect="always"
       preserveAspectRatio="xMidYMid">
      <path
         style="fill:context-stroke;fill-rule:evenodd;stroke:none"
         d="M 0,0 5,-5 -12.5,0 5,5 Z"
         transform="scale(-0.5)"
         id="path6-1-6-0" />
    </marker>
  </defs>
  <g
     inkscape:label="Layer 1"
     inkscape:groupmode="layer"
     id="layer1"
     transform="translate(-3.5198606,-13.739946)">
    <rect
       style="fill:none;stroke:#000000;stroke-width:0.264583;stroke-dasharray:1.05833, 1.05833;stroke-dashoffset:0;stroke-opacity:1"
       id="rect1"
       width="137.05063"
       height="92.962021"
       x="3.6528025"
       y="23.160849"
       ry="7.1772151" />
    <rect
       style="fill:none;stroke:#000000;stroke-width:0.264583;stroke-dasharray:1.05833, 1.05833;stroke-dashoffset:0;stroke-opacity:1"
       id="rect1-7"
       width="132.05855"
       height="128.16455"
       x="199.13194"
       y="23.160849"
       ry="7.1772151" />
    <text
       xml:space="preserve"
       style="font-size:8.46667px;font-family:'Fira Code';-inkscape-font-specification:'Fira Code';text-align:start;writing-mode:lr-tb;direction:ltr;text-anchor:start;fill:none;stroke:#000000;stroke-width:0.264583;stroke-dasharray:none;stroke-dashoffset:0;stroke-opacity:1"
       x="41.589516"
       y="33.601414"
       id="text1"><tspan
         sodipodi:role="line"
         id="tspan1"
         style="fill:#000000;fill-opacity:1;stroke:none;stroke-width:0.264583;stroke-dasharray:none"
         x="41.589516"
         y="33.601414">package pool</tspan></text>
    <text
       xml:space="preserve"
       style="font-size:8.46667px;font-family:'Fira Code';-inkscape-font-specification:'Fira Code';text-align:start;writing-mode:lr-tb;direction:ltr;text-anchor:start;fill:none;stroke:#000000;stroke-width:0.264583;stroke-dasharray:none;stroke-dashoffset:0;stroke-opacity:1"
       x="143.80344"
       y="20.452496"
       id="text1-7"><tspan
         sodipodi:role="line"
         id="tspan1-4"
         style="fill:#000000;fill-opacity:1;stroke:none;stroke-width:0.264583;stroke-dasharray:none"
         x="143.80344"
         y="20.452496">transitive</tspan><tspan
         sodipodi:role="line"
         style="fill:#000000;fill-opacity:1;stroke:none;stroke-width:0.264583;stroke-dasharray:none"
         x="143.80344"
         y="31.035833"
         id="tspan12">dependency</tspan><tspan
         sodipodi:role="line"
         style="fill:#000000;fill-opacity:1;stroke:none;stroke-width:0.264583;stroke-dasharray:none"
         x="143.80344"
         y="41.619171"
         id="tspan13">closure</tspan></text>
    <text
       xml:space="preserve"
       style="font-size:8.46667px;font-family:'Fira Code';-inkscape-font-specification:'Fira Code';text-align:start;writing-mode:lr-tb;direction:ltr;text-anchor:start;fill:none;stroke:#000000;stroke-width:0.264583;stroke-dasharray:none;stroke-dashoffset:0;stroke-opacity:1"
       x="143.26427"
       y="123.6897"
       id="text1-7-9"><tspan
         sodipodi:role="line"
         style="fill:#000000;fill-opacity:1;stroke:none;stroke-width:0.264583;stroke-dasharray:none"
         x="143.26427"
         y="123.6897"
         id="tspan13-3">remove</tspan><tspan
         sodipodi:role="line"
         style="fill:#000000;fill-opacity:1;stroke:none;stroke-width:0.264583;stroke-dasharray:none"
         x="143.26427"
         y="134.27304"
         id="tspan15">obsoletes</tspan></text>
    <text
       xml:space="preserve"
       style="font-size:8.46667px;font-family:'Fira Code';-inkscape-font-specification:'Fira Code';text-align:start;writing-mode:lr-tb;direction:ltr;text-anchor:start;fill:none;stroke:#000000;stroke-width:0.264583;stroke-dasharray:none;stroke-dashoffset:0;stroke-opacity:1"
       x="145.7943"
       y="180.09732"
       id="text1-7-9-5"><tspan
         sodipodi:role="line"
         style="fill:#000000;fill-opacity:1;stroke:none;stroke-width:0.264583;stroke-dasharray:none"
         x="145.7943"
         y="180.09732"
         id="tspan15-4">deltarpm</tspan></text>
    <text
       xml:space="preserve"
       style="font-size:8.46667px;font-family:'Fira Code';-inkscape-font-specification:'Fira Code';text-align:start;writing-mode:lr-tb;direction:ltr;text-anchor:start;fill:none;stroke:#000000;stroke-width:0.264583;stroke-dasharray:none;stroke-dashoffset:0;stroke-opacity:1"
       x="236.13338"
       y="33.601414"
       id="text1-8"><tspan
         sodipodi:role="line"
         id="tspan1-1"
         style="fill:#000000;fill-opacity:1;stroke:none;stroke-width:0.264583;stroke-dasharray:none"
         x="236.13338"
         y="33.601414">repository</tspan></text>
    <text
       xml:space="preserve"
       style="font-size:8.46667px;font-family:'Fira Code';-inkscape-font-specification:'Fira Code';text-align:start;writing-mode:lr-tb;direction:ltr;text-anchor:start;fill:none;stroke:#000000;stroke-width:0.264583;stroke-dasharray:none;stroke-dashoffset:0;stroke-opacity:1"
       x="215.72581"
       y="142.48042"
       id="text1-8-2"><tspan
         sodipodi:role="line"
         id="tspan1-1-4"
         style="fill:#000000;fill-opacity:1;stroke:none;stroke-width:0.264583;stroke-dasharray:none"
         x="215.72581"
         y="142.48042">repodata</tspan></text>
    <text
       xml:space="preserve"
       style="font-size:8.46667px;font-family:'Fira Code';-inkscape-font-specification:'Fira Code';text-align:start;writing-mode:lr-tb;direction:ltr;text-anchor:start;fill:none;stroke:#000000;stroke-width:0.264583;stroke-dasharray:none;stroke-dashoffset:0;stroke-opacity:1"
       x="215.98993"
       y="127.78722"
       id="text1-8-2-0"><tspan
         sodipodi:role="line"
         style="fill:#000000;fill-opacity:1;stroke:none;stroke-width:0.264583;stroke-dasharray:none"
         x="215.98993"
         y="127.78722"
         id="tspan16">release-package</tspan></text>
    <text
       xml:space="preserve"
       style="font-size:7.05556px;line-height:2;font-family:'Fira Code';-inkscape-font-specification:'Fira Code';text-align:start;writing-mode:lr-tb;direction:ltr;text-anchor:start;fill:#000000;fill-opacity:1;stroke:none;stroke-width:0.264583;stroke-dasharray:none;stroke-dashoffset:0;stroke-opacity:1"
       x="25.522556"
       y="53.149769"
       id="text2-2-5"><tspan
         sodipodi:role="line"
         id="tspan2-5-6"
         style="font-size:7.05556px;line-height:2;stroke-width:0.264583"
         x="25.522556"
         y="53.149769">python312-Sphinx-8.0.2-1.1</tspan><tspan
         sodipodi:role="line"
         style="font-size:7.05556px;line-height:2;stroke-width:0.264583"
         x="25.522556"
         y="67.260887"
         id="tspan4">pyenv-2.14-1.1</tspan><tspan
         sodipodi:role="line"
         style="font-size:7.05556px;line-height:2;stroke-width:0.264583"
         x="25.522556"
         y="81.372009"
         id="tspan3">pyenv-2.13-1.0</tspan><tspan
         sodipodi:role="line"
         style="font-size:7.05556px;line-height:2;stroke-width:0.264583"
         x="25.522556"
         y="95.483131"
         id="tspan8">python312-3.12.7-2.1</tspan><tspan
         sodipodi:role="line"
         style="font-size:7.05556px;line-height:2;stroke-width:0.264583"
         x="25.522556"
         y="109.59425"
         id="tspan2">python312-3.12.7-1.1</tspan></text>
    <path
       d="m 12.936134,47.011972 h 9.11923 c 0.36029,0 0.65137,0.291083 0.65137,0.651374 v 0.651373 c 0,0.360291 -0.29108,0.651374 -0.65137,0.651374 h -9.11923 c -0.3603,0 -0.65138,-0.291083 -0.65138,-0.651374 v -0.651373 c 0,-0.360291 0.29108,-0.651374 0.65138,-0.651374 z m 0,2.605495 h 9.11923 v 5.210989 c 0,0.718546 -0.5842,1.302747 -1.30275,1.302747 h -6.51374 c -0.71854,0 -1.30274,-0.584201 -1.30274,-1.302747 z m 2.60549,1.628434 c 0,0.179127 0.14656,0.325686 0.32569,0.325686 h 3.25686 c 0.17913,0 0.32569,-0.146559 0.32569,-0.325686 0,-0.179128 -0.14656,-0.325687 -0.32569,-0.325687 h -3.25686 c -0.17913,0 -0.32569,0.146559 -0.32569,0.325687 z"
       id="path1-9-1"
       style="stroke-width:0.0203554" />
    <path
       d="m 12.936134,61.159836 h 9.11923 c 0.36029,0 0.65137,0.291083 0.65137,0.651374 v 0.651373 c 0,0.360291 -0.29108,0.651374 -0.65137,0.651374 h -9.11923 c -0.3603,0 -0.65138,-0.291083 -0.65138,-0.651374 V 61.81121 c 0,-0.360291 0.29108,-0.651374 0.65138,-0.651374 z m 0,2.605495 h 9.11923 v 5.210989 c 0,0.718546 -0.5842,1.302747 -1.30275,1.302747 h -6.51374 c -0.71854,0 -1.30274,-0.584201 -1.30274,-1.302747 z m 2.60549,1.628434 c 0,0.179127 0.14656,0.325686 0.32569,0.325686 h 3.25686 c 0.17913,0 0.32569,-0.146559 0.32569,-0.325686 0,-0.179128 -0.14656,-0.325687 -0.32569,-0.325687 h -3.25686 c -0.17913,0 -0.32569,0.146559 -0.32569,0.325687 z"
       id="path1-9-1-7"
       style="stroke-width:0.0203554"
       sodipodi:nodetypes="sssssssssccsssscsssssss" />
    <path
       d="m 12.936134,74.249367 h 9.11923 c 0.36029,0 0.65137,0.29108 0.65137,0.65137 v 0.65138 c 0,0.36029 -0.29108,0.65137 -0.65137,0.65137 h -9.11923 c -0.3603,0 -0.65138,-0.29108 -0.65138,-0.65137 v -0.65138 c 0,-0.36029 0.29108,-0.65137 0.65138,-0.65137 z m 0,2.60549 h 9.11923 v 5.21099 c 0,0.71855 -0.5842,1.30275 -1.30275,1.30275 h -6.51374 c -0.71854,0 -1.30274,-0.5842 -1.30274,-1.30275 z m 2.60549,1.62844 c 0,0.17912 0.14656,0.32568 0.32569,0.32568 h 3.25686 c 0.17913,0 0.32569,-0.14655 0.32569,-0.32568 0,-0.17913 -0.14656,-0.32569 -0.32569,-0.32569 h -3.25686 c -0.17913,0 -0.32569,0.14656 -0.32569,0.32569 z"
       id="path1-9-1-7-9"
       style="stroke-width:0.0203554"
       sodipodi:nodetypes="sssssssssccsssscsssssss" />
    <path
       d="m 12.936134,88.673857 h 9.11923 c 0.36029,0 0.65137,0.29108 0.65137,0.65137 v 0.65137 c 0,0.36029 -0.29108,0.65138 -0.65137,0.65138 h -9.11923 c -0.3603,0 -0.65138,-0.29109 -0.65138,-0.65138 v -0.65137 c 0,-0.36029 0.29108,-0.65137 0.65138,-0.65137 z m 0,2.60549 h 9.11923 v 5.21099 c 0,0.71855 -0.5842,1.30275 -1.30275,1.30275 h -6.51374 c -0.71854,0 -1.30274,-0.5842 -1.30274,-1.30275 z m 2.60549,1.62843 c 0,0.17913 0.14656,0.32569 0.32569,0.32569 h 3.25686 c 0.17913,0 0.32569,-0.14656 0.32569,-0.32569 0,-0.17912 -0.14656,-0.32568 -0.32569,-0.32568 h -3.25686 c -0.17913,0 -0.32569,0.14656 -0.32569,0.32568 z"
       id="path1-9-1-7-9-9"
       style="stroke-width:0.0203554"
       sodipodi:nodetypes="sssssssssccsssscsssssss" />
    <path
       d="m 12.936134,101.52047 h 9.11923 c 0.36029,0 0.65137,0.29108 0.65137,0.65137 v 0.65138 c 0,0.36029 -0.29108,0.65137 -0.65137,0.65137 h -9.11923 c -0.3603,0 -0.65138,-0.29108 -0.65138,-0.65137 v -0.65138 c 0,-0.36029 0.29108,-0.65137 0.65138,-0.65137 z m 0,2.6055 h 9.11923 v 5.21098 c 0,0.71855 -0.5842,1.30275 -1.30275,1.30275 h -6.51374 c -0.71854,0 -1.30274,-0.5842 -1.30274,-1.30275 z m 2.60549,1.62843 c 0,0.17913 0.14656,0.32568 0.32569,0.32568 h 3.25686 c 0.17913,0 0.32569,-0.14655 0.32569,-0.32568 0,-0.17913 -0.14656,-0.32569 -0.32569,-0.32569 h -3.25686 c -0.17913,0 -0.32569,0.14656 -0.32569,0.32569 z"
       id="path1-9-1-7-9-9-4"
       style="stroke-width:0.0203554"
       sodipodi:nodetypes="sssssssssccsssscsssssss" />
    <text
       xml:space="preserve"
       style="font-size:7.05556px;line-height:2;font-family:'Fira Code';-inkscape-font-specification:'Fira Code';text-align:start;writing-mode:lr-tb;direction:ltr;text-anchor:start;fill:#000000;fill-opacity:1;stroke:none;stroke-width:0.264583;stroke-dasharray:none;stroke-dashoffset:0;stroke-opacity:1"
       x="25.522556"
       y="156.36496"
       id="text2-2-5-3"><tspan
         sodipodi:role="line"
         style="font-size:7.05556px;line-height:2;stroke-width:0.264583"
         x="25.522556"
         y="156.36496"
         id="tspan3-0">pyenv-2.13-1.0</tspan><tspan
         sodipodi:role="line"
         style="font-size:7.05556px;line-height:2;stroke-width:0.264583"
         x="25.522556"
         y="170.47607"
         id="tspan2-88">python312-3.12.7-1.1</tspan></text>
    <path
       d="m 12.936134,150.22717 h 9.11923 c 0.36029,0 0.65137,0.29108 0.65137,0.65137 v 0.65137 c 0,0.36029 -0.29108,0.65138 -0.65137,0.65138 h -9.11923 c -0.3603,0 -0.65138,-0.29109 -0.65138,-0.65138 v -0.65137 c 0,-0.36029 0.29108,-0.65137 0.65138,-0.65137 z m 0,2.60549 h 9.11923 v 5.21099 c 0,0.71855 -0.5842,1.30275 -1.30275,1.30275 h -6.51374 c -0.71854,0 -1.30274,-0.5842 -1.30274,-1.30275 z m 2.60549,1.62844 c 0,0.17912 0.14656,0.32568 0.32569,0.32568 h 3.25686 c 0.17913,0 0.32569,-0.14656 0.32569,-0.32568 0,-0.17913 -0.14656,-0.32569 -0.32569,-0.32569 h -3.25686 c -0.17913,0 -0.32569,0.14656 -0.32569,0.32569 z"
       id="path1-9-1-9"
       style="stroke-width:0.0203554" />
    <path
       d="m 12.936134,164.37503 h 9.11923 c 0.36029,0 0.65137,0.29108 0.65137,0.65137 v 0.65138 c 0,0.36029 -0.29108,0.65137 -0.65137,0.65137 h -9.11923 c -0.3603,0 -0.65138,-0.29108 -0.65138,-0.65137 v -0.65138 c 0,-0.36029 0.29108,-0.65137 0.65138,-0.65137 z m 0,2.6055 h 9.11923 v 5.21098 c 0,0.71855 -0.5842,1.30275 -1.30275,1.30275 h -6.51374 c -0.71854,0 -1.30274,-0.5842 -1.30274,-1.30275 z m 2.60549,1.62843 c 0,0.17913 0.14656,0.32569 0.32569,0.32569 h 3.25686 c 0.17913,0 0.32569,-0.14656 0.32569,-0.32569 0,-0.17913 -0.14656,-0.32569 -0.32569,-0.32569 h -3.25686 c -0.17913,0 -0.32569,0.14656 -0.32569,0.32569 z"
       id="path1-9-1-7-7"
       style="stroke-width:0.0203554"
       sodipodi:nodetypes="sssssssssccsssscsssssss" />
    <text
       xml:space="preserve"
       style="font-size:7.05556px;line-height:2;font-family:'Fira Code';-inkscape-font-specification:'Fira Code';text-align:start;writing-mode:lr-tb;direction:ltr;text-anchor:start;fill:#000000;fill-opacity:1;stroke:none;stroke-width:0.264583;stroke-dasharray:none;stroke-dashoffset:0;stroke-opacity:1"
       x="215.32468"
       y="53.149769"
       id="text2-2-5-5"><tspan
         sodipodi:role="line"
         id="tspan2-5-6-6"
         style="font-size:7.05556px;line-height:2;stroke-width:0.264583"
         x="215.32468"
         y="53.149769">python312-Sphinx-8.0.2-1.1</tspan><tspan
         sodipodi:role="line"
         style="font-size:7.05556px;line-height:2;stroke-width:0.264583"
         x="215.32468"
         y="67.260887"
         id="tspan4-3">pyenv-2.14-1.1</tspan><tspan
         sodipodi:role="line"
         style="font-size:7.05556px;line-height:2;stroke-width:0.264583"
         x="215.32468"
         y="81.372009"
         id="tspan3-9" /><tspan
         sodipodi:role="line"
         style="font-size:7.05556px;line-height:2;stroke-width:0.264583"
         x="215.32468"
         y="95.483131"
         id="tspan8-4">python312-3.12.7-2.1</tspan><tspan
         sodipodi:role="line"
         style="font-size:7.05556px;line-height:2;stroke-width:0.264583"
         x="215.32468"
         y="109.59425"
         id="tspan2-8" /></text>
    <path
       d="m 202.73828,47.011972 h 9.11923 c 0.36029,0 0.65137,0.291083 0.65137,0.651374 v 0.651373 c 0,0.360291 -0.29108,0.651374 -0.65137,0.651374 h -9.11923 c -0.3603,0 -0.65138,-0.291083 -0.65138,-0.651374 v -0.651373 c 0,-0.360291 0.29108,-0.651374 0.65138,-0.651374 z m 0,2.605495 h 9.11923 v 5.210989 c 0,0.718546 -0.5842,1.302747 -1.30275,1.302747 h -6.51374 c -0.71854,0 -1.30274,-0.584201 -1.30274,-1.302747 z m 2.60549,1.628434 c 0,0.179127 0.14656,0.325686 0.32569,0.325686 h 3.25686 c 0.17913,0 0.32569,-0.146559 0.32569,-0.325686 0,-0.179128 -0.14656,-0.325687 -0.32569,-0.325687 h -3.25686 c -0.17913,0 -0.32569,0.146559 -0.32569,0.325687 z"
       id="path1-9-1-1"
       style="stroke-width:0.0203554" />
    <path
       d="m 202.73828,61.159836 h 9.11923 c 0.36029,0 0.65137,0.291083 0.65137,0.651374 v 0.651373 c 0,0.360291 -0.29108,0.651374 -0.65137,0.651374 h -9.11923 c -0.3603,0 -0.65138,-0.291083 -0.65138,-0.651374 V 61.81121 c 0,-0.360291 0.29108,-0.651374 0.65138,-0.651374 z m 0,2.605495 h 9.11923 v 5.210989 c 0,0.718546 -0.5842,1.302747 -1.30275,1.302747 h -6.51374 c -0.71854,0 -1.30274,-0.584201 -1.30274,-1.302747 z m 2.60549,1.628434 c 0,0.179127 0.14656,0.325686 0.32569,0.325686 h 3.25686 c 0.17913,0 0.32569,-0.146559 0.32569,-0.325686 0,-0.179128 -0.14656,-0.325687 -0.32569,-0.325687 h -3.25686 c -0.17913,0 -0.32569,0.146559 -0.32569,0.325687 z"
       id="path1-9-1-7-2"
       style="stroke-width:0.0203554"
       sodipodi:nodetypes="sssssssssccsssscsssssss" />
    <path
       d="m 202.73828,88.673857 h 9.11923 c 0.36029,0 0.65137,0.29108 0.65137,0.65137 v 0.65137 c 0,0.36029 -0.29108,0.65138 -0.65137,0.65138 h -9.11923 c -0.3603,0 -0.65138,-0.29109 -0.65138,-0.65138 v -0.65137 c 0,-0.36029 0.29108,-0.65137 0.65138,-0.65137 z m 0,2.60549 h 9.11923 v 5.21099 c 0,0.71855 -0.5842,1.30275 -1.30275,1.30275 h -6.51374 c -0.71854,0 -1.30274,-0.5842 -1.30274,-1.30275 z m 2.60549,1.62843 c 0,0.17913 0.14656,0.32569 0.32569,0.32569 h 3.25686 c 0.17913,0 0.32569,-0.14656 0.32569,-0.32569 0,-0.17912 -0.14656,-0.32568 -0.32569,-0.32568 h -3.25686 c -0.17913,0 -0.32569,0.14656 -0.32569,0.32568 z"
       id="path1-9-1-7-9-9-9"
       style="stroke-width:0.0203554"
       sodipodi:nodetypes="sssssssssccsssscsssssss" />
    <path
       style="fill:none;stroke:#000000;stroke-width:0.264583;stroke-dasharray:none;stroke-dashoffset:0;stroke-opacity:1;marker-end:url(#DartArrow)"
       d="m 141.95627,50.725008 h 54.68355"
       id="path12"
       sodipodi:nodetypes="cc" />
    <path
       style="fill:none;stroke:#000000;stroke-width:0.264583;stroke-dasharray:none;stroke-dashoffset:0;stroke-opacity:1;marker-end:url(#DartArrow-5)"
       d="m 141.95627,65.466842 h 54.68355"
       id="path12-6"
       sodipodi:nodetypes="cc" />
    <path
       style="fill:none;stroke:#000000;stroke-width:0.264583;stroke-dasharray:none;stroke-dashoffset:0;stroke-opacity:1;marker-end:url(#DartArrow-56)"
       d="m 141.95627,93.500493 h 54.68355"
       id="path12-5"
       sodipodi:nodetypes="cc" />
    <path
       style="fill:none;stroke:#000000;stroke-width:0.529167;stroke-dasharray:none;stroke-dashoffset:0;stroke-opacity:1;marker-end:url(#DartArrow-56-9)"
       d="m 122.77765,133.8068 c 7.09983,-7.09984 46.97481,-7.94412 70.09912,-7.94412"
       id="path12-5-1"
       sodipodi:nodetypes="cc" />
    <path
       style="fill:none;stroke:#000000;stroke-width:0.529167;stroke-dasharray:none;stroke-dashoffset:0;stroke-opacity:1;marker-end:url(#DartArrow-56-9-3)"
       d="m 124.66971,169.34847 c 26.06936,0 53.33721,0.006 78.88905,-14.74626"
       id="path12-5-1-2"
       sodipodi:nodetypes="cc" />
    <path
       fill-rule="evenodd"
       clip-rule="evenodd"
       d="m 231.04818,33.250358 v -7.436569 l -0.43748,-0.437447 h -8.53891 a 1.6622923,1.6622923 0 0 0 -0.58619,0.113748 1.5485566,1.5485566 0 0 0 -0.82239,0.87489 1.4873142,1.4873142 0 0 0 -0.11371,0.542433 v 8.311463 a 1.4873142,1.4873142 0 0 0 0.11371,0.586177 c 0.15475,0.373578 0.45057,0.671917 0.82239,0.831146 a 1.6622923,1.6622923 0 0 0 0.58619,0.113747 h 0.2275 v -0.874892 h -0.2275 a 0.62992131,0.62992131 0 0 1 -0.25363,-0.05251 0.6474191,0.6474191 0 0 1 -0.34994,-0.349955 0.81364836,0.81364836 0 0 1 -0.0436,-0.253722 v -0.437446 a 0.81364836,0.81364836 0 0 1 0.0436,-0.25372 0.6474191,0.6474191 0 0 1 0.34994,-0.349955 0.62992131,0.62992131 0 0 1 0.25031,-0.05251 h 8.10499 v 1.74978 h -3.49955 v 0.874892 h 3.93699 l 0.43748,-0.437446 z m -8.74893,0 v -6.999123 h 7.87401 v 6.999123 z m 0.87491,-6.124233 h 0.87488 v 0.87489 h -0.87488 z m 0,1.749782 h 0.87488 v 0.87489 h -0.87488 z m 0.87488,1.749779 h -0.87488 v 0.874893 h 0.87488 z m 0.43745,5.678042 -1.06736,1.321085 H 223.1741 V 35.00014 h 2.62468 v 2.624673 h -0.24503 z"
       id="path1"
       style="stroke-width:0.87489" />
    <path
       fill-rule="evenodd"
       clip-rule="evenodd"
       d="m 212.54447,142.99137 v -7.43657 l -0.43748,-0.43744 h -8.53891 a 1.6622923,1.6622923 0 0 0 -0.58619,0.11374 1.5485566,1.5485566 0 0 0 -0.82239,0.87489 1.4873142,1.4873142 0 0 0 -0.11371,0.54244 v 8.31146 a 1.4873142,1.4873142 0 0 0 0.11371,0.58618 c 0.15475,0.37358 0.45057,0.67191 0.82239,0.83114 a 1.6622923,1.6622923 0 0 0 0.58619,0.11375 h 0.2275 v -0.87489 h -0.2275 a 0.62992131,0.62992131 0 0 1 -0.25363,-0.0525 0.6474191,0.6474191 0 0 1 -0.34994,-0.34996 0.81364836,0.81364836 0 0 1 -0.0436,-0.25372 v -0.43745 a 0.81364836,0.81364836 0 0 1 0.0436,-0.25372 0.6474191,0.6474191 0 0 1 0.34994,-0.34995 0.62992131,0.62992131 0 0 1 0.25031,-0.0525 h 8.10499 v 1.74978 h -3.49955 v 0.87489 h 3.93699 l 0.43748,-0.43744 z m -8.74893,0 v -6.99912 h 7.87401 v 6.99912 z m 0.87491,-6.12423 h 0.87488 v 0.87489 h -0.87488 z m 0,1.74978 h 0.87488 v 0.87489 h -0.87488 z m 0.87488,1.74978 h -0.87488 v 0.87489 h 0.87488 z m 0.43745,5.67804 -1.06736,1.32109 h -0.24503 v -2.62468 h 2.62468 v 2.62468 h -0.24503 z"
       id="path1-9"
       style="stroke-width:0.87489" />
    <rect
       style="fill:none;stroke:#000000;stroke-width:0.264583;stroke-dasharray:1.05833, 1.05833;stroke-dashoffset:0;stroke-opacity:1"
       id="rect1-7-1"
       width="120.78005"
       height="51.949371"
       x="3.8105063"
       y="131.41025"
       ry="7.1772151" />
    <text
       xml:space="preserve"
       style="font-size:8.46667px;font-family:'Fira Code';-inkscape-font-specification:'Fira Code';text-align:start;writing-mode:lr-tb;direction:ltr;text-anchor:start;fill:none;stroke:#000000;stroke-width:0.264583;stroke-dasharray:none;stroke-dashoffset:0;stroke-opacity:1"
       x="34.660046"
       y="141.8508"
       id="text1-8-8"><tspan
         sodipodi:role="line"
         id="tspan1-1-9"
         style="fill:#000000;fill-opacity:1;stroke:none;stroke-width:0.264583;stroke-dasharray:none"
         x="34.660046"
         y="141.8508">old repository</tspan></text>
    <path
       fill-rule="evenodd"
       clip-rule="evenodd"
       d="m 29.574845,141.49975 v -7.43657 l -0.43748,-0.43744 h -8.53891 a 1.6622923,1.6622923 0 0 0 -0.58619,0.11374 1.5485566,1.5485566 0 0 0 -0.82239,0.87489 1.4873142,1.4873142 0 0 0 -0.11371,0.54244 v 8.31146 a 1.4873142,1.4873142 0 0 0 0.11371,0.58618 c 0.15475,0.37357 0.45057,0.67191 0.82239,0.83114 a 1.6622923,1.6622923 0 0 0 0.58619,0.11375 h 0.2275 v -0.87489 h -0.2275 a 0.62992131,0.62992131 0 0 1 -0.25363,-0.0525 0.6474191,0.6474191 0 0 1 -0.34994,-0.34996 0.81364836,0.81364836 0 0 1 -0.0436,-0.25372 v -0.43746 a 0.81364836,0.81364836 0 0 1 0.0436,-0.25372 0.6474191,0.6474191 0 0 1 0.34994,-0.34995 0.62992131,0.62992131 0 0 1 0.25031,-0.0525 h 8.10499 v 1.74978 h -3.49955 v 0.87489 h 3.93699 l 0.43748,-0.43745 z m -8.74893,0 v -6.99912 h 7.87401 v 6.99912 z m 0.87491,-6.12423 h 0.87488 v 0.87489 h -0.87488 z m 0,1.74978 h 0.87488 v 0.87489 h -0.87488 z m 0.87488,1.74978 h -0.87488 v 0.87489 h 0.87488 z m 0.43745,5.67804 -1.06736,1.32109 h -0.24503 v -2.62468 h 2.62468 v 2.62468 h -0.24503 z"
       id="path1-6"
       style="stroke-width:0.87489" />
    <g
       id="g12"
       transform="matrix(0.68878753,0,0,0.68878753,43.173869,86.073875)">
      <path
         fill-rule="evenodd"
         clip-rule="evenodd"
         d="m 136.80503,123.79576 4.23577,4.23582 0.40931,1.00251 v 12.70748 l -1.41198,1.41192 h -12.70742 l -1.41192,-1.41192 v -16.9433 l 1.41192,-1.41198 h 8.47165 z m -9.47416,17.94581 h 12.70743 v -12.70748 l -4.23578,-4.23582 h -8.47165 z m 5.64786,-11.29555 h -2.82385 v 1.41192 h 2.82385 v 2.8239 h 1.41198 v -2.8239 h 2.82384 v -1.41192 h -2.82384 v -2.82391 h -1.41198 z m -2.82385,7.05972 h 7.05967 v 1.41193 h -7.05967 z"
         id="path1-4"
         style="stroke-width:1.41194" />
      <path
         d="m 140.63134,123.38597 3.23331,3.23337 0.40931,1.00245 1.6e-4,14.11951 -1.41192,1.41192 -1.6e-4,-15.53143 -4.23583,-4.23582 z"
         id="path2"
         style="stroke-width:1.41194" />
    </g>
    <path
       d="m 136.37528,126.87265 0.52698,0.52699 1.20452,-1.20455 1.20454,1.20455 0.60225,-0.52699 -1.2798,-1.20451 1.2798,-1.20455 -0.60225,-0.60225 -1.20454,1.27981 -1.20452,-1.27981 -0.52698,0.60225 1.20454,1.20455 z m -6.77546,-6.47434 h 10.53961 v -0.75282 h -10.53961 z m 0,2.25849 h 10.53961 v -0.75282 h -10.53961 z m 6.02264,1.88208 v -0.37641 h -6.02264 v 0.75282 h 6.02264 z m 0,2.63489 v -0.75282 h -6.02264 v 0.75282 z"
       id="path1-1"
       style="stroke-width:0.752829" />
    <path
       d="m 202.73828,120.81345 h 9.11923 c 0.36029,0 0.65137,0.29108 0.65137,0.65137 v 0.65137 c 0,0.36029 -0.29108,0.65138 -0.65137,0.65138 h -9.11923 c -0.3603,0 -0.65138,-0.29109 -0.65138,-0.65138 v -0.65137 c 0,-0.36029 0.29108,-0.65137 0.65138,-0.65137 z m 0,2.60549 h 9.11923 v 5.21099 c 0,0.71855 -0.5842,1.30275 -1.30275,1.30275 h -6.51374 c -0.71854,0 -1.30274,-0.5842 -1.30274,-1.30275 z m 2.60549,1.62843 c 0,0.17913 0.14656,0.32569 0.32569,0.32569 h 3.25686 c 0.17913,0 0.32569,-0.14656 0.32569,-0.32569 0,-0.17912 -0.14656,-0.32568 -0.32569,-0.32568 h -3.25686 c -0.17913,0 -0.32569,0.14656 -0.32569,0.32568 z"
       id="path1-9-1-7-9-9-9-5"
       style="stroke-width:0.0203554"
       sodipodi:nodetypes="sssssssssccsssscsssssss" />
  </g>
</svg>
