<?xml version="1.0" encoding="UTF-8" standalone="no"?>
<svg
   version="1.1"
   x="0"
   y="0"
   width="75.59996"
   height="38.090038"
   viewBox="0 0 75.59996 38.090038"
   id="svg2"
   sodipodi:docname="SUSE_Logo-hor_L_Green-pos_sRGB.svg"
   inkscape:version="1.4 (e7c3feb100, 2024-10-09)"
   xmlns:inkscape="http://www.inkscape.org/namespaces/inkscape"
   xmlns:sodipodi="http://sodipodi.sourceforge.net/DTD/sodipodi-0.dtd"
   xmlns="http://www.w3.org/2000/svg"
   xmlns:svg="http://www.w3.org/2000/svg">
  <defs
     id="defs2" />
  <sodipodi:namedview
     id="namedview2"
     pagecolor="#ffffff"
     bordercolor="#000000"
     borderopacity="0.25"
     inkscape:showpageshadow="2"
     inkscape:pageopacity="0.0"
     inkscape:pagecheckerboard="0"
     inkscape:deskcolor="#d1d1d1"
     inkscape:zoom="2.6888889"
     inkscape:cx="104.87603"
     inkscape:cy="16.363636"
     inkscape:window-width="1916"
     inkscape:window-height="1021"
     inkscape:window-x="0"
     inkscape:window-y="0"
     inkscape:window-maximized="0"
     inkscape:current-layer="svg2" />
  <path
     d="m 71.407745,13.461296 c -0.405,0.269 -0.947,0.269 -1.353,0 -0.664,-0.441 -0.728,-1.363 -0.192,-1.896 0.476,-0.493 1.261,-0.493 1.737,-10e-4 0.535,0.534 0.47,1.456 -0.192,1.897 m 1.936,-2.687 c 0.772,3.284 -2.18,6.237 -5.464,5.465 -1.672,-0.392 -2.999,-1.719 -3.392,-3.39 -0.77,-3.2820002 2.181,-6.2330002 5.464,-5.4640002 1.671,0.391 2.999,1.717 3.392,3.3890002 m -22.112,17.662 c 0.375,0.539 0.687,1.06 0.862,1.581 0.124,0.37 0.283,0.858 0.648,1.054 0.02,0.011 0.038,0.021 0.06,0.027 0.67,0.244 2.393,0.203 2.393,0.203 h 3.169 c 0.271,0.004 2.652,-0.003 2.592,-0.269 -0.287,-1.273 -1.759,-1.501 -2.88,-2.167 -1.033,-0.616 -2.013,-1.314 -2.457,-2.515 -0.232,-0.62 -0.095,-2.05 0.304,-2.571 0.291,-0.377 0.72,-0.627 1.181,-0.728 0.511,-0.109 1.041,-0.015 1.552,0.037 0.63,0.064 1.252,0.178 1.88,0.256 1.212,0.158 2.436,0.221 3.658,0.188 2.017,-0.056 4.039,-0.377 5.951,-1.029 1.335,-0.448 2.65,-1.054 3.785,-1.897 1.29,-0.959 0.951,-0.869 -0.357,-0.735 -1.566,0.16 -3.146,0.184 -4.717,0.091 -1.466,-0.085 -2.912,-0.258 -4.238,-0.939 -1.044,-0.539 -1.941,-1.079 -2.769,-1.914 -0.124,-0.126 -0.201,-0.494 0.026,-0.729 0.22,-0.228 0.686,-0.096 0.829,0.026 1.444,1.207 3.598,2.201 5.828,2.309 1.206,0.06 2.379,0.082 3.586,0.03 0.603,-0.028 1.513,-0.024 2.118,-0.03 0.312,-0.004 1.163,0.086 1.322,-0.245 0.048,-0.096 0.044,-0.207 0.04,-0.315 -0.177,-4.826 -0.534,-10.2690002 -5.584,-12.5760002 -3.768,-1.723 -9.417,-4.392 -11.803,-5.49900004 -0.553,-0.263 -1.2,0.153 -1.2,0.769 0,1.61200004 0.082,3.92800004 0.083,6.03600004 -1.143,-1.164 -3.068,-1.899 -4.535,-2.573 -1.666,-0.764 -3.386,-1.412 -5.136,-1.957 -3.523,-1.091 -7.169,-1.76300004 -10.836,-2.12700004 -4.159,-0.415 -8.388,-0.216 -12.483,0.63 -6.744,1.39800004 -13.373,4.64100004 -18.4050001,9.38400024 -3.089,2.91 -5.51299997,7.047 -5.67699997,11.246 -0.234,5.943 1.43099997,9.134 4.49099997,12.423 4.88,5.242 15.3830001,5.976 19.6370001,-0.24 1.914,-2.798 2.329,-6.593 0.94,-9.686 -1.389,-3.091 -4.582,-5.325 -7.967,-5.439 -2.627,-0.087 -5.426,1.249 -6.433,3.678 -0.7680001,1.855 -0.331,4.147 1.068,5.587 0.545,0.562 1.283,1.022 2.089,0.842 0.475,-0.106 0.872,-0.463 0.944,-0.945 0.106,-0.711 -0.516,-1.172 -0.899,-1.718 -0.691,-0.985 -0.551,-2.464 0.314,-3.301 0.73,-0.707 1.811,-0.916 2.827,-0.913 0.946,0.002 1.913,0.171 2.729,0.648 1.147,0.675 1.909,1.911 2.173,3.217 0.787,3.903 -2.386,7.074 -6.688,7.323 -2.201,0.13 -4.441,-0.448 -6.1590001,-1.831 -4.351,-3.5 -5.417,-10.654 -0.444,-14.473 4.7210001,-3.625 10.6810001,-2.691 14.1950001,-0.807 2.812,1.507 4.908,3.973 6.496,6.699 0.797,1.371 1.476,2.804 2.106,4.259 0.606,1.399 1.173,2.809 2.386,3.834 0.803,0.68 1.794,0.656 2.846,0.656 h 6.005 c 0.816,0 0.617,-0.544 0.265,-0.904 -0.796,-0.814 -1.94,-0.998 -2.999,-1.289 -2.421,-0.666 -2.174,-3.871 -1.504,-3.871 2.164,0 2.232,0.065 4.128,0.041 2.736,-0.038 3.564,-0.197 5.704,0.594 1.144,0.424 2.243,1.542 2.96,2.564"
     fill="#30ba78"
     id="path2" />
</svg>
